<?xml version="1.0" encoding="utf-8"?>
<!-- Generator: Adobe Illustrator 12.0.0, SVG Export Plug-In . SVG Version: 6.00 Build 51448)  -->
<!DOCTYPE svg PUBLIC "-//W3C//DTD SVG 1.1//EN" "http://www.w3.org/Graphics/SVG/1.1/DTD/svg11.dtd" [
	<!ENTITY ns_svg "http://www.w3.org/2000/svg">
	<!ENTITY ns_xlink "http://www.w3.org/1999/xlink">
]>
<svg  version="1.1" id="Layer_1" xmlns="&ns_svg;" xmlns:xlink="&ns_xlink;" width="432" height="204" viewBox="0 0 432 204"
	 overflow="visible" enable-background="new 0 0 432 204" xml:space="preserve">
<g>
	<g>
		<rect x="220.184" y="142.23" width="4.037" height="33.246"/>
	</g>
	<g>
		<path fill-rule="evenodd" clip-rule="evenodd" d="M203.529,150.753c-3.519,0-6.662,1.212-8.512,3.328
			c-1.928,2.181-2.881,5.508-2.881,9.285c0,4.042,1.22,7.369,3.069,9.48c1.924,1.92,4.805,3.083,8.323,3.083
			c3.595,0,6.671-1.163,8.587-3.262c1.863-1.933,3.086-5.26,3.086-9.302c0-3.777-1.223-7.104-3.086-9.285
			C210.2,151.965,207.124,150.753,203.529,150.753 M209.042,170.232c-1.22,1.473-3.13,2.17-5.513,2.17
			c-2.36,0-4.283-0.957-5.431-2.365c-1.231-1.472-1.934-3.847-1.934-6.671c0-2.879,0.702-5.249,1.934-6.656
			c1.147-1.406,3.07-2.369,5.431-2.369c2.383,0,4.293,0.963,5.513,2.369c1.158,1.407,1.855,3.777,1.855,6.656
			C210.897,166.19,210.2,168.82,209.042,170.232"/>
	</g>
	<g>
		<path fill-rule="evenodd" clip-rule="evenodd" d="M126.521,154.341c1.924,0,3.584,0.443,4.547,1.407
			c0.966,0.962,1.924,2.369,1.924,3.841h4.04c0-2.619-1.213-4.994-3.141-6.466c-1.603-1.412-4.229-2.37-7.37-2.37
			c-3.269,0-6.15,1.212-8.073,3.588c-1.861,2.115-2.819,5.443-2.819,9.285c0,3.782,0.958,6.86,2.819,9.042
			c1.674,2.099,4.293,3.262,7.629,3.262c3.07,0,5.698-0.896,7.619-2.368c1.861-1.412,3.076-3.783,3.336-6.603h-3.839
			c-0.201,1.606-1.159,3.078-2.384,4.031c-0.952,0.715-2.622,1.159-4.483,1.159c-1.915,0-3.845-0.953-4.738-2.371
			c-0.962-1.401-1.66-3.588-1.66-6.412c0-2.879,0.698-5.249,1.855-6.656C122.741,155.304,124.66,154.341,126.521,154.341"/>
	</g>
	<g>
		<polygon fill-rule="evenodd" clip-rule="evenodd" points="93.523,142.23 68.087,142.23 68.087,146.272 78.53,146.272 
			78.53,175.477 83.076,175.477 83.076,146.272 93.523,146.272 		"/>
	</g>
	<g>
		<path fill-rule="evenodd" clip-rule="evenodd" d="M186.169,154.081c-0.447-0.958-1.601-2.116-2.82-2.63
			c-1.224-0.454-2.877-0.698-4.738-0.698c-1.412,0-3.067,0.509-4.287,1.212c-1.219,0.45-2.371,1.667-3.336,3.079v-3.593h-3.78
			v24.025h4.028v-13.512c0-2.376,0.717-4.291,1.869-5.703c0.964-1.218,2.888-1.921,5.251-1.921c1.662,0,3.071,0.443,3.77,1.407
			c0.774,0.962,1.224,2.624,1.224,5.005v14.724h4.033v-14.476v-0.957c0-1.672-0.248-3.074-0.443-3.782
			C186.938,155.498,186.424,154.595,186.169,154.081"/>
	</g>
	<g>
		<path fill-rule="evenodd" clip-rule="evenodd" d="M240.893,150.753c-3.594,0-6.673,1.212-8.594,3.328
			c-1.915,2.181-2.824,5.508-2.824,9.285c0,4.042,1.157,7.369,3.085,9.48c1.861,1.92,4.739,3.083,8.333,3.083
			c3.516,0,6.591-1.163,8.516-3.262c1.921-1.933,3.074-5.26,3.074-9.302c0-3.777-1.153-7.104-3.074-9.285
			C247.483,151.965,244.408,150.753,240.893,150.753 M246.336,170.232c-1.229,1.473-3.079,2.17-5.443,2.17
			c-2.435,0-4.296-0.957-5.52-2.365c-1.153-1.472-1.852-3.847-1.852-6.671c0-2.879,0.698-5.249,1.852-6.656
			c1.224-1.406,3.085-2.369,5.52-2.369c2.364,0,4.214,0.963,5.443,2.369c1.147,1.407,1.921,3.777,1.921,6.656
			C248.257,166.19,247.483,168.82,246.336,170.232"/>
	</g>
	<g>
		<path fill-rule="evenodd" clip-rule="evenodd" d="M101.16,150.753c-3.342,0-5.972,1.212-7.885,3.588
			c-1.861,2.115-2.818,5.443-2.818,9.495c0,3.827,0.957,6.899,2.818,9.011c1.913,1.92,4.543,3.083,7.885,3.083
			c2.815,0,5.176-0.708,7.099-2.109c1.934-1.418,3.078-3.588,3.596-5.969h-4.112c-0.182,1.483-1.147,2.635-2.11,3.345
			c-0.958,0.509-2.622,0.953-4.034,0.953c-2.116,0-4.034-0.704-5.251-1.917c-0.899-1.152-1.664-3.079-1.664-5.454h17.172
			l0.189-0.703v-0.958c0-3.782-0.955-7.121-2.821-9.226C107.299,151.965,104.484,150.753,101.16,150.753 M94.683,161.45
			c0-2.115,0.96-4.042,1.918-5.188c0.963-1.218,2.627-1.921,4.56-1.921c1.85,0,3.773,0.703,4.736,1.921
			c0.956,1.146,1.846,3.073,1.846,5.188H94.683z"/>
	</g>
	<g>
		<path fill-rule="evenodd" clip-rule="evenodd" d="M160.032,154.081c-0.455-0.958-1.607-2.116-2.824-2.63
			c-1.216-0.454-2.871-0.698-4.732-0.698c-1.412,0-3.082,0.509-4.557,1.212c-1.153,0.45-2.37,1.667-2.819,2.819V142.23h-4.033
			v33.246h4.033v-14.28c0-1.861,0.704-3.788,1.861-4.935c1.22-1.218,3.142-1.921,5.25-1.921c1.661,0,3.079,0.443,3.781,1.407
			c0.772,0.962,1.216,2.624,1.216,5.005v14.724h4.038v-14.476v-0.957c0-1.672-0.254-3.074-0.443-3.782
			C160.803,155.498,160.294,154.595,160.032,154.081"/>
	</g>
	<g>
		<path fill-rule="evenodd" clip-rule="evenodd" d="M330.715,161.45l-3.852-0.963c-1.412-0.194-2.365-0.703-2.818-1.152
			c-0.51-0.265-0.704-0.963-0.704-1.661c0-0.964,0.454-2.176,1.157-2.63c0.698-0.449,2.182-0.703,3.588-0.703
			s2.824,0.443,3.776,1.157c0.963,0.498,1.661,1.662,1.661,2.619h4.043c0-2.121-0.963-4.036-2.619-5.443
			c-1.677-1.223-4.037-1.921-6.861-1.921c-2.635,0-5,0.698-6.401,1.921c-1.477,1.218-2.387,3.074-2.387,5
			c0,1.915,0.455,3.522,1.418,4.479c0.969,0.964,2.819,1.922,5.185,2.377l4.55,1.223c1.412,0.243,2.625,0.692,3.073,1.206
			c0.525,0.449,0.71,1.153,0.71,1.861c0,0.958-0.71,2.17-1.667,2.625c-0.963,0.443-2.37,0.957-4.037,0.957
			c-1.85,0-3.522-0.514-4.484-1.206c-0.959-0.71-1.408-2.116-1.408-3.533h-4.101c0,2.569,0.968,4.739,2.635,6.157
			c1.466,1.401,4.025,2.109,6.915,2.109c3.068,0,5.714-0.708,7.619-2.109c1.612-1.152,2.565-3.085,2.565-5.443
			c0-1.932-0.704-3.599-1.667-4.541C335.705,162.862,333.523,161.965,330.715,161.45"/>
	</g>
	<g>
		<path fill-rule="evenodd" clip-rule="evenodd" d="M274.586,154.595c-0.957-1.218-2.364-2.37-3.521-2.884
			c-0.963-0.449-2.636-0.958-4.031-0.958c-3.145,0-5.975,1.212-7.89,3.588c-1.855,2.115-2.818,5.248-2.818,9.025
			c0,3.787,0.963,6.866,2.818,9.302c1.915,2.099,4.55,3.262,7.89,3.262c1.396,0,3.068-0.453,4.216-0.896
			c1.211-0.516,2.38-1.472,3.337-2.631v3.328c0,2.375-0.698,4.042-1.66,5.006c-0.963,0.903-3.085,1.406-5.46,1.406
			c-1.921,0-3.772-0.503-4.734-0.963c-0.963-0.443-1.407-1.662-1.407-2.819v-0.255h-4.036v0.255c0,2.122,0.898,4.043,2.564,5.2
			c1.661,1.207,4.286,1.915,7.365,1.915c3.847,0,6.925-0.968,8.857-2.635c1.579-1.402,2.542-4.28,2.542-8.074v-23.315h-4.031
			V154.595z M272.926,170.232c-0.963,1.473-3.085,2.17-5.46,2.17c-2.105,0-4.031-0.957-5.254-2.365
			c-0.888-1.472-1.656-3.847-1.656-6.411c0-2.873,0.769-5.509,1.915-6.916c0.942-1.385,2.825-2.326,5.131-2.354l-0.136-0.016h0.259
			l-0.123,0.016c2.305,0.027,4.188,0.969,5.324,2.354c1.217,1.407,1.931,4.043,1.931,6.916
			C274.856,166.445,274.143,168.82,272.926,170.232"/>
	</g>
	<g>
		<path fill-rule="evenodd" clip-rule="evenodd" d="M304.569,150.753c-3.334,0-5.953,1.212-7.878,3.588
			c-1.861,2.115-2.824,5.443-2.824,9.495c0,3.827,0.963,6.899,2.824,9.011c1.925,1.92,4.544,3.083,7.878,3.083
			c2.825,0,5.189-0.708,7.121-2.109c1.921-1.418,3.073-3.588,3.582-5.969h-4.102c-0.194,1.483-1.157,2.635-2.115,3.345
			c-0.969,0.509-2.625,0.953-4.031,0.953c-2.122,0-4.043-0.704-5.265-1.917c-0.893-1.152-1.662-3.079-1.662-5.454h17.175
			l0.188-0.703v-0.958c0-3.782-0.95-7.121-2.818-9.226C310.716,151.965,307.902,150.753,304.569,150.753 M298.098,161.45
			c0-2.115,0.969-4.042,1.921-5.188c0.963-1.218,2.625-1.921,4.551-1.921c1.861,0,3.777,0.703,4.74,1.921
			c0.963,1.146,1.861,3.073,1.861,5.188H298.098z"/>
	</g>
	<g>
		<rect x="284.836" y="151.451" width="4.047" height="24.025"/>
	</g>
	<g>
		<rect x="284.814" y="141.775" width="4.047" height="4.758"/>
	</g>
	<g>
		<path fill-rule="evenodd" clip-rule="evenodd" d="M346.83,112.296c-21.568-7.586-49.003-25.811-58.927-39.615l8.03,47.466
			l-15.845,0.033l-19.901-29.648l-44.923-0.081l-12.846,29.729h-16.471l-7.94-49.755c-17.681,41.768-16.935,48.25-17.237,47.812
			c-13.328-19.756-29.856-41.541-48.324-64.262l2.321,65.793l-15.619,0.276l-0.321-20.232c-1.697,3.896-1.65,4.351-3.5,6.959
			c-14.968,21.017-55.062,14.273-76.188,2.856l5.616-14.118c0.693,1.547,12.636,8.138,26.006,9.767
			c11.652,1.417,24.39,1.109,30.725-6.916c0.286-0.351,0.687-1.055,1.041-1.775l0.531-2.05c0.774-2.478,0.538-4.443-0.198-6.147
			c-0.544-1.261-1.669-2.646-2.5-3.62C70.463,73.153,28.581,70.317,23.41,50.453c-8.949-34.366,46.278-38.018,71.123-24.939
			l-4.551,13.273c-8.857-5.525-22.964-7.754-35.404-5.828c-17.821,2.766-27.861,14.334,5.019,25.589
			c12.974,4.437,31.319,10.254,36.776,20.135c0.449,0.714,1.491,2.749,1.571,3.187l-0.232-54.392
			c26.526,9.031,41.319,37.163,56.758,58.553l32.203-59.912l9.835,73.169l34.011-74.062l47.007,65.133L266.617,27.84
			c16.968-5.238,38.256-7.213,56.924-0.726l89.32-0.178l-5.146,13.257l-33.007-0.357l-13.729,81.02l-15.601-0.361L346.83,112.296
			 M220.925,77.195l12.176-28.187l18.483,28.187H220.925 M285.11,54.987l-2.802-17.949c9.49-5.681,40.069-2.245,36.633,7.218
			C315.505,53.727,285.733,57.795,285.11,54.987 M349.265,99.472c-18.862-6.677-47.828-28.414-48.916-32.927
			c10.66-0.812,33.392-6.861,30.951-26.351l27.169,0.189L349.265,99.472"/>
	</g>
	<g>
		<polygon fill-rule="evenodd" clip-rule="evenodd" points="373.128,120.856 373.128,114.883 370.877,114.883 370.877,114.082 
			376.25,114.082 376.25,114.883 374.015,114.883 374.015,120.856 		"/>
	</g>
	<g>
		<polygon fill-rule="evenodd" clip-rule="evenodd" points="377.171,120.856 377.171,114.082 378.501,114.082 380.118,118.871 
			380.444,119.872 380.807,118.79 382.457,114.082 383.643,114.082 383.643,120.856 382.771,120.856 382.771,115.181 
			380.79,120.856 379.989,120.856 378.036,115.115 378.036,120.856 		"/>
	</g>
</g>
</svg>
